<svg width="26" height="27" viewBox="0 0 26 27" fill="none" xmlns="http://www.w3.org/2000/svg">
<path d="M21.4966 4.35408C19.1344 1.94611 15.9989 0.62146 12.6582 0.62146C9.3175 0.62146 6.18198 1.94611 3.81982 4.35408C1.45766 6.76204 0.158203 9.95837 0.158203 13.3638C0.158203 16.7693 1.45766 19.9656 3.81982 22.3736C6.18198 24.7816 9.3175 26.1062 12.6582 26.1062C15.9989 26.1062 19.1344 24.7816 21.4966 22.3736C23.8587 19.9656 25.1582 16.7693 25.1582 13.3638C25.1582 9.95837 23.8587 6.76204 21.4966 4.35408ZM20.4917 21.3493C18.3979 23.4837 15.6149 24.6582 12.6582 24.6582C9.70155 24.6582 6.91851 23.4837 4.82466 21.3493C0.505425 16.9463 0.505425 9.78139 4.82466 5.3784C6.91851 3.24394 9.70155 2.06946 12.6582 2.06946C15.6149 2.06946 18.3979 3.24394 20.4917 5.3784C24.811 9.78139 24.811 16.9463 20.4917 21.3493Z" fill="#505050"/>
<path d="M18.166 7.74882C17.8871 7.46459 17.44 7.46459 17.1611 7.74882L12.6578 12.3395L8.15439 7.74882C7.87556 7.46459 7.42838 7.46459 7.14955 7.74882C6.87072 8.03306 6.87072 8.48891 7.14955 8.77315L11.6529 13.3638L7.14955 17.9545C6.87072 18.2388 6.87072 18.6946 7.14955 18.9789C7.28634 19.1183 7.47047 19.1934 7.64934 19.1934C7.82821 19.1934 8.01235 19.1237 8.14913 18.9789L12.6525 14.3882L17.1559 18.9789C17.2927 19.1183 17.4768 19.1934 17.6557 19.1934C17.8398 19.1934 18.0187 19.1237 18.1554 18.9789C18.4343 18.6946 18.4343 18.2388 18.1554 17.9545L13.6626 13.3638L18.166 8.77315C18.4448 8.48891 18.4448 8.03306 18.166 7.74882Z" fill="#505050"/>
</svg>
