<svg width="25" height="26" viewBox="0 0 25 26" fill="none" xmlns="http://www.w3.org/2000/svg">
<path d="M22.5806 0H2.41935C1.08871 0 0 1.25357 0 2.78571C0 4.31785 1.08871 5.57142 2.41935 5.57142H22.5806C23.9113 5.57142 25 4.31785 25 2.78571C25 1.25357 23.9113 0 22.5806 0Z" fill="black"/>
<path d="M22.5806 10.2143H2.41935C1.08871 10.2143 0 11.4678 0 13C0 14.5321 1.08871 15.7857 2.41935 15.7857H22.5806C23.9113 15.7857 25 14.5321 25 13C25 11.4678 23.9113 10.2143 22.5806 10.2143Z" fill="black"/>
<path d="M22.5806 20.4286H2.41935C1.08871 20.4286 0 21.6822 0 23.2143C0 24.7465 1.08871 26 2.41935 26H22.5806C23.9113 26 25 24.7465 25 23.2143C25 21.6822 23.9113 20.4286 22.5806 20.4286Z" fill="black"/>
</svg>
