<svg width="22" height="22" viewBox="0 0 22 22" fill="none" xmlns="http://www.w3.org/2000/svg">
<g clip-path="url(#clip0)">
<path d="M20.5795 12.7573V2.4245C20.5795 2.07685 20.2978 1.79509 19.9501 1.79509H16.7611V1.12372C16.7611 0.776068 16.4794 0.494308 16.1317 0.494308C15.7841 0.494308 15.5023 0.776068 15.5023 1.12372V1.79509H12.9847V1.12372C12.9847 0.776068 12.7029 0.494308 12.3552 0.494308C12.0076 0.494308 11.7258 0.776068 11.7258 1.12372V1.79509H9.2082V1.12372C9.2082 0.776068 8.92644 0.494308 8.57879 0.494308C8.23114 0.494308 7.94938 0.776068 7.94938 1.12372V1.79509H5.43174V1.12372C5.43174 0.776068 5.14998 0.494308 4.80232 0.494308C4.45467 0.494308 4.17291 0.776068 4.17291 1.12372V1.79509H0.983902C0.636252 1.79509 0.354492 2.07685 0.354492 2.4245V18.8311C0.354492 19.1788 0.636252 19.4605 0.983902 19.4605H11.4659C12.4834 20.9775 14.2138 21.9782 16.1737 21.9782C19.2971 21.9782 21.8384 19.4369 21.8384 16.3135C21.8384 14.9678 21.3663 13.7303 20.5795 12.7573ZM4.17291 3.05391V3.68332C4.17291 4.03097 4.45467 4.31273 4.80232 4.31273C5.14998 4.31273 5.43174 4.03097 5.43174 3.68332V3.05391H7.94938V3.68332C7.94938 4.03097 8.23114 4.31273 8.57879 4.31273C8.92644 4.31273 9.2082 4.03097 9.2082 3.68332V3.05391H11.7258V3.68332C11.7258 4.03097 12.0076 4.31273 12.3552 4.31273C12.7029 4.31273 12.9847 4.03097 12.9847 3.68332V3.05391H15.5023V3.68332C15.5023 4.03097 15.7841 4.31273 16.1317 4.31273C16.4794 4.31273 16.7611 4.03097 16.7611 3.68332V3.05391H19.3207V5.57155H1.61331V3.05391H4.17291ZM1.61331 18.2017V6.83037H19.3207V11.6057C18.42 11.0017 17.3373 10.6488 16.1737 10.6488C14.1848 10.6488 12.4323 11.6793 11.4213 13.2341C11.3362 13.1912 11.2403 13.1664 11.1384 13.1664H9.87957C9.53192 13.1664 9.25016 13.4482 9.25016 13.7958C9.25016 14.1435 9.53192 14.4253 9.87957 14.4253H10.833C10.6909 14.8262 10.5926 15.2478 10.5442 15.6841H9.87957C9.53192 15.6841 9.25016 15.9658 9.25016 16.3135C9.25016 16.6611 9.53192 16.9429 9.87957 16.9429H10.5442C10.5926 17.3792 10.6908 17.8008 10.833 18.2017H1.61331ZM16.1737 20.7194C13.7442 20.7194 11.7678 18.7429 11.7678 16.3135C11.7678 13.884 13.7442 11.9076 16.1737 11.9076C18.6031 11.9076 20.5795 13.884 20.5795 16.3135C20.5795 18.7429 18.6031 20.7194 16.1737 20.7194Z" fill="white"/>
<path d="M18.691 15.6841H16.8028V13.7958C16.8028 13.4482 16.521 13.1664 16.1734 13.1664C15.8257 13.1664 15.5439 13.4482 15.5439 13.7958V16.3135C15.5439 16.6611 15.8257 16.9429 16.1734 16.9429H18.691C19.0387 16.9429 19.3204 16.6611 19.3204 16.3135C19.3204 15.9658 19.0387 15.6841 18.691 15.6841Z" fill="white"/>
<path d="M6.06108 8.13115H4.80226C4.45461 8.13115 4.17285 8.41291 4.17285 8.76056C4.17285 9.10821 4.45461 9.38997 4.80226 9.38997H6.06108C6.40873 9.38997 6.69049 9.10821 6.69049 8.76056C6.69049 8.41291 6.40873 8.13115 6.06108 8.13115Z" fill="white"/>
<path d="M6.06108 10.6488H4.80226C4.45461 10.6488 4.17285 10.9306 4.17285 11.2782C4.17285 11.6259 4.45461 11.9076 4.80226 11.9076H6.06108C6.40873 11.9076 6.69049 11.6259 6.69049 11.2782C6.69049 10.9306 6.40873 10.6488 6.06108 10.6488Z" fill="white"/>
<path d="M6.06108 13.1664H4.80226C4.45461 13.1664 4.17285 13.4482 4.17285 13.7958C4.17285 14.1435 4.45461 14.4253 4.80226 14.4253H6.06108C6.40873 14.4253 6.69049 14.1435 6.69049 13.7958C6.69049 13.4482 6.40873 13.1664 6.06108 13.1664Z" fill="white"/>
<path d="M9.87941 9.38997H11.1382C11.4859 9.38997 11.7676 9.10821 11.7676 8.76056C11.7676 8.41291 11.4859 8.13115 11.1382 8.13115H9.87941C9.53176 8.13115 9.25 8.41291 9.25 8.76056C9.25 9.10821 9.53176 9.38997 9.87941 9.38997Z" fill="white"/>
<path d="M9.87941 11.9076H11.1382C11.4859 11.9076 11.7676 11.6259 11.7676 11.2782C11.7676 10.9306 11.4859 10.6488 11.1382 10.6488H9.87941C9.53176 10.6488 9.25 10.9306 9.25 11.2782C9.25 11.6259 9.53176 11.9076 9.87941 11.9076Z" fill="white"/>
<path d="M6.06108 15.6841H4.80226C4.45461 15.6841 4.17285 15.9658 4.17285 16.3135C4.17285 16.6611 4.45461 16.9429 4.80226 16.9429H6.06108C6.40873 16.9429 6.69049 16.6611 6.69049 16.3135C6.69049 15.9658 6.40873 15.6841 6.06108 15.6841Z" fill="white"/>
<path d="M14.9146 9.38997H16.1734C16.521 9.38997 16.8028 9.10821 16.8028 8.76056C16.8028 8.41291 16.521 8.13115 16.1734 8.13115H14.9146C14.5669 8.13115 14.2852 8.41291 14.2852 8.76056C14.2852 9.10821 14.5669 9.38997 14.9146 9.38997Z" fill="white"/>
</g>
<defs>
<clipPath id="clip0">
<rect width="21.4839" height="21.4839" fill="white" transform="translate(0.354492 0.494308)"/>
</clipPath>
</defs>
</svg>
