<svg width="30" height="31" viewBox="0 0 30 31" fill="none" xmlns="http://www.w3.org/2000/svg">
<g clip-path="url(#clip0)">
<path d="M26.9996 13.9463C26.9996 13.6659 26.7761 13.4382 26.4996 13.4382C24.7594 13.4382 23.248 14.4479 22.4997 15.9202C21.7513 14.4479 20.2399 13.4382 18.4997 13.4382C18.2232 13.4382 17.9998 13.6659 17.9998 13.9463C17.9998 16.2957 19.7528 18.2365 21.9997 18.4902V20.2221C21.1741 19.1844 19.9123 18.519 18.4998 18.519C18.2233 18.519 17.9998 18.7467 17.9998 19.0271C17.9998 21.3765 19.7528 23.3173 21.9998 23.571V25.1242C21.9998 25.4046 22.2232 25.6322 22.4997 25.6322C22.7762 25.6322 22.9997 25.4046 22.9997 25.1242V23.571C25.2466 23.3173 26.9997 21.3765 26.9997 19.0271C26.9997 18.7467 26.7762 18.519 26.4997 18.519C25.0872 18.519 23.8253 19.1844 22.9998 20.2221V18.4902C25.2466 18.2365 26.9996 16.2956 26.9996 13.9463ZM25.9576 14.497C25.7242 16.0183 24.5386 17.2229 23.0417 17.4602C23.2752 15.939 24.4607 14.7343 25.9576 14.497ZM19.0417 14.497C20.5387 14.7343 21.7241 15.939 21.9576 17.4602C20.4607 17.2229 19.2753 16.0182 19.0417 14.497ZM19.0417 19.5779C20.5387 19.8151 21.7241 21.0198 21.9576 22.541C20.4607 22.3037 19.2753 21.0991 19.0417 19.5779ZM25.9576 19.5779C25.7242 21.0991 24.5386 22.3037 23.0417 22.541C23.2752 21.0198 24.4607 19.8151 25.9576 19.5779Z" fill="#505050"/>
<path d="M28.4114 9.66009C27.3732 8.55412 25.9922 7.91899 24.4997 7.85505V6.83314C24.7762 6.83314 24.9997 6.60552 24.9997 6.32508V2.26039C24.9997 1.42003 24.3267 0.736145 23.4997 0.736145H21.4998C20.6728 0.736145 19.9998 1.42003 19.9998 2.26039V6.32508C19.9998 6.60552 20.2233 6.83314 20.4998 6.83314V7.85618C19.0186 7.92721 17.6495 8.56138 16.6187 9.65961C15.5227 10.8277 14.9607 12.3585 15.0372 13.9793L15.9247 27.7854C15.9882 29.142 17.0852 30.205 18.4216 30.205H26.6075C27.944 30.205 29.041 29.142 29.104 27.7946L29.9934 13.9702C30.0689 12.3585 29.5069 10.8277 28.4114 9.66009ZM20.9998 2.26039C20.9998 1.98043 21.2238 1.75233 21.4997 1.75233H23.4997C23.7756 1.75233 23.9996 1.98043 23.9996 2.26039V5.81696H20.9997V2.26039H20.9998ZM23.4997 6.83314V7.84933H21.4998V6.83314H23.4997ZM28.9949 13.9127L28.1054 27.7372C28.0674 28.5511 27.4094 29.1888 26.6074 29.1888H18.4216C17.6201 29.1888 16.9617 28.5512 16.9232 27.7281L16.0357 13.922C15.9731 12.5903 16.4371 11.3257 17.3422 10.3613C18.2476 9.39644 19.4681 8.86552 20.7796 8.86552H20.9998H23.9998H24.2495C25.561 8.86552 26.7825 9.39644 27.6875 10.3613C28.5924 11.3261 29.0569 12.5908 28.9949 13.9127Z" fill="#505050"/>
<path d="M13.9993 3.77544C13.9992 3.76848 13.9987 3.76163 13.9983 3.75472C13.9977 3.74401 13.997 3.73335 13.9957 3.72281C13.995 3.7168 13.9939 3.7109 13.993 3.70495C13.9912 3.69363 13.9893 3.68244 13.9868 3.67142C13.9857 3.66613 13.9842 3.66089 13.9829 3.65559C13.9799 3.64427 13.9768 3.63308 13.9731 3.62207C13.9714 3.61683 13.9694 3.61176 13.9676 3.60658C13.9636 3.59587 13.9595 3.58533 13.9549 3.57503C13.9525 3.56961 13.9499 3.56437 13.9473 3.55901C13.9425 3.54925 13.9375 3.53966 13.9322 3.53025C13.9291 3.52478 13.9258 3.51936 13.9225 3.51394C13.9169 3.50501 13.9111 3.49626 13.905 3.48774C13.9013 3.4825 13.8975 3.47726 13.8936 3.47214C13.887 3.46363 13.8802 3.45547 13.8731 3.44737C13.8706 3.44451 13.8684 3.44136 13.8659 3.43856C13.8643 3.43683 13.8625 3.43534 13.8608 3.43362C13.8532 3.42552 13.8452 3.41778 13.837 3.41016C13.8329 3.40635 13.8289 3.40242 13.8247 3.39879C13.8156 3.39093 13.8062 3.38354 13.7966 3.37628C13.7929 3.37354 13.7894 3.37056 13.7856 3.36794C13.7746 3.36014 13.7632 3.35294 13.7516 3.34603C13.749 3.34449 13.7464 3.3427 13.7437 3.34121C13.7302 3.33353 13.7163 3.3265 13.7021 3.32013C13.7011 3.31972 13.7002 3.31918 13.6992 3.3187C13.6391 3.29215 13.5729 3.27714 13.5033 3.27667C13.5022 3.27667 13.5011 3.27649 13.4999 3.27649H13.4998H0.500089H0.499972C0.411145 3.27649 0.327885 3.30025 0.25564 3.34145C0.253706 3.34258 0.251832 3.34383 0.249898 3.34496C0.237652 3.35217 0.225699 3.35973 0.214156 3.36794C0.210113 3.3708 0.206305 3.37396 0.202379 3.37688C0.193356 3.38372 0.184391 3.39063 0.175837 3.39801C0.170329 3.40278 0.165056 3.4079 0.159724 3.4129C0.153337 3.41897 0.146951 3.42498 0.140915 3.43136C0.138572 3.43386 0.135935 3.436 0.133591 3.4385C0.1299 3.44255 0.126795 3.44696 0.123279 3.45106C0.117947 3.45726 0.112732 3.46351 0.107752 3.47C0.102772 3.47643 0.097967 3.48304 0.0932796 3.48971C0.0880649 3.49715 0.0830259 3.50477 0.0781627 3.51251C0.0742956 3.51876 0.070487 3.52501 0.0669129 3.53138C0.0619911 3.54008 0.0574209 3.54889 0.0529678 3.55788C0.0500382 3.56383 0.0471671 3.56973 0.0444719 3.57574C0.040136 3.58545 0.0362689 3.59533 0.032519 3.60539C0.0304096 3.61117 0.0281831 3.61689 0.0262495 3.62278C0.0228512 3.63314 0.0199215 3.64368 0.0171091 3.65428C0.0155857 3.66017 0.0139451 3.66607 0.0125974 3.67202C0.0102537 3.68262 0.00843735 3.69334 0.00673816 3.70417C0.00574209 3.71042 0.00468742 3.71662 0.00392571 3.72293C0.00263667 3.73376 0.00193356 3.74478 0.00128904 3.75579C0.000937484 3.76199 0.000468742 3.76818 0.000351556 3.77443C0.000410149 3.77788 0 3.78116 0 3.78461C0 3.79402 0.000878891 3.80325 0.00140623 3.81254C0.001582 3.81563 0.00140623 3.81867 0.0016406 3.82171L0.0024023 3.8326C0.00257808 3.83427 0.00257808 3.836 0.00275386 3.83766L1.42755 23.6303C1.4599 24.0819 1.67716 24.4806 1.99995 24.7524V28.6807C1.99995 29.521 2.67294 30.2049 3.49992 30.2049H10.4998C11.3268 30.2049 11.9998 29.521 11.9998 28.6807V24.7528C12.3225 24.4812 12.5395 24.0825 12.5719 23.6308L13.9984 3.82165C13.9987 3.81659 13.9985 3.81158 13.9987 3.80658C13.999 3.7992 13.9998 3.792 13.9998 3.78455C13.9997 3.78152 13.9994 3.77854 13.9993 3.77544ZM10.4998 29.1888H3.49992C3.22395 29.1888 2.99995 28.9607 2.99995 28.6807H5.49992H8.49987H10.9998C10.9998 28.9606 10.7758 29.1888 10.4998 29.1888ZM7.99984 27.6645H5.99989V27.1565H7.99984V27.6645ZM10.9998 27.6645H8.99984V27.1565C8.99984 26.5961 8.55137 26.1403 7.99984 26.1403H5.99989C5.44842 26.1403 4.99989 26.596 4.99989 27.1565V27.6645H2.99995V25.1239C3.00299 25.1239 3.00598 25.1242 3.00903 25.1242H10.9914C10.9942 25.1242 10.997 25.124 10.9998 25.124V27.6645ZM11.5749 23.5572C11.5524 23.8656 11.2964 24.1079 10.9914 24.1079H3.00903C2.70405 24.1079 2.44707 23.8656 2.42457 23.5562L1.03809 4.29268H12.9619L11.5749 23.5572Z" fill="#505050"/>
<path d="M7.00192 17.5029C8.68489 17.5029 10.0034 15.0478 10.0034 11.9139C10.0034 8.78007 8.68494 6.32501 7.00192 6.32501C5.31943 6.32501 4.00098 8.78007 4.00098 11.9139C4.00098 15.0478 5.31943 17.5029 7.00192 17.5029ZM7.00192 7.3412C7.9489 7.3412 9.0034 9.21906 9.0034 11.9139C9.0034 14.6088 7.9489 16.4867 7.00192 16.4867C6.05542 16.4867 5.00098 14.6088 5.00098 11.9139C5.00098 9.21906 6.05542 7.3412 7.00192 7.3412Z" fill="#505050"/>
<path d="M4.49997 19.5352H9.49986C9.77636 19.5352 9.99984 19.3075 9.99984 19.0271C9.99984 18.7467 9.77636 18.519 9.49986 18.519H4.49997C4.22347 18.519 4 18.7467 4 19.0271C4 19.3075 4.22347 19.5352 4.49997 19.5352Z" fill="#505050"/>
<path d="M4.49997 21.5676H9.49986C9.77636 21.5676 9.99984 21.34 9.99984 21.0596C9.99984 20.7791 9.77636 20.5515 9.49986 20.5515H4.49997C4.22347 20.5515 4 20.7791 4 21.0596C4 21.34 4.22347 21.5676 4.49997 21.5676Z" fill="#505050"/>
<path d="M25.4996 26.1404H19.4997C19.2232 26.1404 18.9998 26.368 18.9998 26.6484C18.9998 26.9289 19.2232 27.1565 19.4997 27.1565H25.4996C25.7761 27.1565 25.9996 26.9289 25.9996 26.6484C25.9996 26.368 25.7761 26.1404 25.4996 26.1404Z" fill="#505050"/>
</g>
<defs>
<clipPath id="clip0">
<rect width="30" height="30.4855" fill="white" transform="translate(0 0.227783)"/>
</clipPath>
</defs>
</svg>
