<svg width="25" height="26" viewBox="0 0 25 26" fill="none" xmlns="http://www.w3.org/2000/svg">
<g clip-path="url(#clip0)">
<path d="M11.7778 11.3143C11.7702 11.2763 11.7591 11.2395 11.7445 11.2034C11.7299 11.1678 11.7117 11.1333 11.6908 11.1013C11.6698 11.0686 11.6452 11.0384 11.6183 11.0111C11.4829 10.8729 11.2809 10.81 11.0911 10.8486C11.0538 10.8563 11.0176 10.8676 10.982 10.8824C10.9469 10.8973 10.9131 10.9157 10.8815 10.937C10.8494 10.9589 10.8197 10.9833 10.7928 11.0112C10.7654 11.0385 10.7414 11.0687 10.7198 11.1013C10.6988 11.1334 10.6807 11.1678 10.6661 11.2034C10.6515 11.2396 10.6404 11.2764 10.6328 11.3143C10.6252 11.3529 10.6217 11.3921 10.6217 11.4307C10.6217 11.5867 10.6836 11.7398 10.7927 11.8501C10.8196 11.8775 10.8494 11.9023 10.8815 11.9237C10.913 11.9451 10.9469 11.9635 10.9819 11.9783C11.0175 11.9931 11.0537 12.0044 11.0911 12.0121C11.129 12.0198 11.1676 12.024 11.2055 12.024C11.3591 12.024 11.5097 11.9605 11.6183 11.8502C11.7269 11.7398 11.7893 11.5868 11.7893 11.4307C11.7895 11.3921 11.7854 11.3529 11.7778 11.3143Z" fill="#505050"/>
<path d="M6.29608 11.5184C6.2891 11.4804 6.27738 11.443 6.26278 11.4068C6.24818 11.3712 6.23006 11.3368 6.20907 11.3048C6.18807 11.2721 6.16351 11.2419 6.13666 11.2146C6.1098 11.1873 6.08001 11.1624 6.04793 11.141C6.01639 11.1197 5.98255 11.1013 5.94691 11.0864C5.9119 11.0716 5.87508 11.0597 5.83773 11.0526C5.76243 11.0372 5.68475 11.0372 5.61004 11.0526C5.57269 11.0597 5.53587 11.0716 5.50027 11.0864C5.46526 11.1013 5.43137 11.1197 5.39983 11.141C5.3677 11.1623 5.33797 11.1873 5.31111 11.2146C5.28425 11.2419 5.25974 11.2722 5.23811 11.3048C5.21712 11.3368 5.199 11.3712 5.1844 11.4068C5.1698 11.443 5.15872 11.4804 5.1511 11.5184C5.14353 11.5563 5.14001 11.5955 5.14001 11.6341C5.14001 11.6726 5.14353 11.7118 5.1511 11.7498C5.15867 11.7877 5.1698 11.8252 5.1844 11.8607C5.199 11.8969 5.21712 11.9313 5.23811 11.9634C5.25969 11.996 5.28425 12.0263 5.31111 12.0535C5.33797 12.0808 5.36775 12.1057 5.39983 12.1271C5.43137 12.1485 5.46521 12.1669 5.50027 12.1817C5.53587 12.1965 5.57269 12.2078 5.61004 12.2156C5.64739 12.2232 5.68592 12.2274 5.72391 12.2274C5.76185 12.2274 5.80037 12.2232 5.83778 12.2156C5.87513 12.2079 5.9119 12.1965 5.94696 12.1817C5.98255 12.1669 6.01644 12.1485 6.04798 12.1271C6.08011 12.1058 6.10985 12.0808 6.1367 12.0535C6.16356 12.0263 6.18807 11.996 6.20912 11.9634C6.23011 11.9313 6.24823 11.897 6.26283 11.8607C6.27743 11.8252 6.2891 11.7877 6.29613 11.7498C6.3037 11.7118 6.3078 11.6727 6.3078 11.6341C6.30775 11.5955 6.3037 11.5564 6.29608 11.5184Z" fill="#505050"/>
<path d="M17.2594 11.5183C17.2519 11.4803 17.2407 11.4429 17.2261 11.4068C17.2115 11.3712 17.1934 11.3367 17.1724 11.3047C17.1508 11.272 17.1263 11.2418 17.0994 11.2145C17.0726 11.1872 17.0428 11.1623 17.0107 11.1403C16.9792 11.119 16.9453 11.1012 16.9103 11.0864C16.8747 11.0715 16.8384 11.0597 16.8011 11.052C16.7258 11.0365 16.6481 11.0365 16.5728 11.052C16.5355 11.0597 16.4986 11.0716 16.4636 11.0864C16.4286 11.1012 16.3947 11.119 16.3626 11.1403C16.3311 11.1623 16.3007 11.1872 16.2739 11.2145C16.247 11.2418 16.2225 11.2721 16.2015 11.3047C16.1805 11.3367 16.1624 11.3711 16.1478 11.4068C16.1332 11.4429 16.1221 11.4803 16.1145 11.5183C16.1068 11.5563 16.1028 11.5954 16.1028 11.634C16.1028 11.6726 16.1069 11.7117 16.1145 11.7497C16.1221 11.7877 16.1332 11.8251 16.1478 11.8607C16.1624 11.8968 16.1805 11.9313 16.2015 11.9633C16.2225 11.996 16.247 12.0262 16.2739 12.0535C16.3007 12.0808 16.3311 12.1057 16.3626 12.1271C16.3947 12.1484 16.4286 12.1668 16.4636 12.1816C16.4986 12.1965 16.5355 12.2083 16.5728 12.2155C16.6102 12.2232 16.6487 12.2273 16.6867 12.2273C16.7252 12.2273 16.7631 12.2232 16.8011 12.2155C16.8385 12.2084 16.8747 12.1965 16.9103 12.1816C16.9453 12.1668 16.9792 12.1484 17.0107 12.1271C17.0429 12.1057 17.0726 12.0808 17.0995 12.0535C17.1263 12.0262 17.1508 11.9959 17.1725 11.9633C17.1935 11.9313 17.2116 11.8969 17.2262 11.8607C17.2408 11.8251 17.2519 11.7877 17.2595 11.7497C17.267 11.7118 17.2706 11.6726 17.2706 11.634C17.2705 11.5955 17.267 11.5563 17.2594 11.5183Z" fill="#505050"/>
<path d="M24.0645 12.4118C23.9173 12.1202 23.5654 12.0052 23.2785 12.1547C22.4224 12.601 21.6341 13.1434 20.9228 13.7654L21.5338 9.41901C21.5577 9.24872 21.5078 9.07634 21.3969 8.94639C21.286 8.81644 21.1251 8.74181 20.9558 8.74181H13.9555L13.7307 7.48557C14.6629 6.71614 15.209 5.56291 15.209 4.32855C15.2089 2.08525 13.413 0.260132 11.2054 0.260132C8.99775 0.260132 7.20176 2.08525 7.20176 4.32855C7.20176 5.56296 7.7479 6.71614 8.68003 7.48557L8.45527 8.74181H1.45482C1.28558 8.74181 1.12464 8.81644 1.01375 8.94639C0.902865 9.07634 0.852913 9.24877 0.876839 9.41901L1.59574 14.5324C1.43802 14.5416 1.28997 14.6146 1.18636 14.737C1.07542 14.8681 1.02625 15.0418 1.05179 15.2127L1.60487 18.922C1.64813 19.2121 1.89344 19.4264 2.18212 19.4264H2.28378L3.0892 25.1554C3.13031 25.4477 3.3766 25.6648 3.66713 25.6648H18.7436C19.0342 25.6648 19.2805 25.4477 19.3215 25.1554L20.1269 19.4264H20.2286C20.5172 19.4264 20.7626 19.2121 20.8058 18.922L21.3589 15.2127C21.371 15.1318 21.3658 15.0504 21.3458 14.973C22.0729 14.2803 22.9001 13.6856 23.8116 13.2104C24.0984 13.0609 24.2117 12.7033 24.0645 12.4118ZM8.36943 4.3285C8.36943 2.73947 9.64165 1.44661 11.2054 1.44661C12.7692 1.44661 14.0413 2.73942 14.0413 4.3285C14.0413 5.29785 13.5656 6.19673 12.7688 6.73301C12.5742 6.864 12.475 7.10034 12.5168 7.33379L12.7687 8.74176H9.64204L9.89395 7.33379C9.93575 7.10039 9.83662 6.86415 9.6419 6.73311C8.84512 6.19673 8.36943 5.29789 8.36943 4.3285ZM2.79012 18.2398H2.68422L2.30804 15.7171H19.1354C18.5682 16.4936 18.0923 17.3393 17.7202 18.2398H2.79012ZM17.2999 19.4264C17.2199 19.6948 17.1491 19.9672 17.0868 20.2431H16.2619L16.3665 19.4264H17.2999ZM15.1889 19.4264L15.0843 20.2431H11.7891V19.4264H15.1889ZM4.17348 24.4782L3.46327 19.4264H6.04052L6.42856 22.6909C6.46435 22.992 6.71626 23.2131 7.00742 23.2131C7.03076 23.2131 7.05444 23.2117 7.07817 23.2088C7.39829 23.1695 7.62646 22.8739 7.58779 22.5487L7.2167 19.4265H10.6215V20.5391C10.5714 20.6266 10.5423 20.7279 10.5423 20.8364V21.6967C10.5423 22.7863 10.9865 23.772 11.6999 24.4783H4.17348V24.4782ZM17.0229 21.6966C17.0229 23.185 15.8313 24.396 14.3665 24.396C12.9018 24.396 11.71 23.1851 11.71 21.6966V21.4296H17.0229V21.6966ZM18.2373 24.4782H17.0331C17.7465 23.7719 18.1906 22.7862 18.1906 21.6966V20.8364C18.1906 20.7957 18.1865 20.756 18.1789 20.7176C18.2696 20.277 18.3864 19.8463 18.5265 19.4264H18.9475L18.2373 24.4782ZM19.7265 18.2398H19.6206H18.9999C19.2768 17.648 19.6035 17.0844 19.9776 16.5559L19.7265 18.2398ZM19.6357 14.5306H16.952L17.0886 13.3815C17.1273 13.0562 16.8991 12.7607 16.579 12.7214C16.2589 12.6818 15.968 12.9139 15.9294 13.2393L15.7759 14.5306H11.7892V13.1165C11.7892 12.7888 11.5278 12.5232 11.2053 12.5232C10.8829 12.5232 10.6215 12.7888 10.6215 13.1165V14.5306H6.63471L6.48125 13.2393C6.44257 12.914 6.15195 12.682 5.83163 12.7214C5.51152 12.7607 5.28334 13.0562 5.32201 13.3815L5.45859 14.5306H2.77499L2.12806 9.92839H8.94253H13.4682H20.2827L19.6357 14.5306Z" fill="#505050"/>
<path d="M11.2054 2.29327C10.084 2.29327 9.17175 3.22035 9.17175 4.35983C9.17175 5.49937 10.0841 6.42639 11.2054 6.42639C12.3268 6.42639 13.239 5.49932 13.239 4.35983C13.2391 3.22035 12.3268 2.29327 11.2054 2.29327ZM11.2053 5.23987C10.7278 5.23987 10.3393 4.8451 10.3393 4.35983C10.3393 3.87456 10.7278 3.4798 11.2053 3.4798C11.6829 3.4798 12.0714 3.87456 12.0714 4.35983C12.0714 4.8451 11.6828 5.23987 11.2053 5.23987Z" fill="#505050"/>
</g>
<defs>
<clipPath id="clip0">
<rect width="25" height="25.4046" fill="white" transform="translate(0 0.260132)"/>
</clipPath>
</defs>
</svg>
