<svg width="42" height="38" viewBox="0 0 42 38" fill="none" xmlns="http://www.w3.org/2000/svg">
<path d="M6.55492 22.243C6.55492 22.243 6.31215 15.4587 6.55492 13.2383C6.67631 12.6216 7.04047 11.5114 7.76879 11.018C8.49712 10.5246 11.1676 10.2779 11.1676 10.2779L12.5029 11.3881L13.9595 16.1988L11.289 18.2958L10.0752 15.212" stroke="#505050" stroke-width="1.5" stroke-miterlimit="10" stroke-linecap="round" stroke-linejoin="round"/>
<path d="M11.0462 11.7581C13.0574 11.7581 14.6878 10.1013 14.6878 8.05755C14.6878 6.01379 13.0574 4.35699 11.0462 4.35699C9.03495 4.35699 7.40454 6.01379 7.40454 8.05755C7.40454 10.1013 9.03495 11.7581 11.0462 11.7581Z" fill="white" stroke="#505050" stroke-width="1.5" stroke-miterlimit="10" stroke-linecap="round" stroke-linejoin="round"/>
<path d="M23.3064 19.5293H13.5955" stroke="#505050" stroke-width="1.5" stroke-miterlimit="10" stroke-linecap="round" stroke-linejoin="round"/>
<path d="M18.5722 20.2693V22.4897L25.7341 22.3663C25.7341 22.3663 27.4335 21.7496 27.0693 20.3927C26.7052 19.0358 21.6069 15.4586 21.6069 15.4586L15.5376 15.2119L10.4393 19.6526C10.4393 19.6526 9.46819 21.1328 10.6821 21.9963C11.8959 22.8597 16.3873 22.4897 16.3873 22.4897" stroke="#505050" stroke-width="1.5" stroke-miterlimit="10" stroke-linecap="round" stroke-linejoin="round"/>
<path d="M18.5723 20.2694C20.5835 20.2694 22.2139 18.6126 22.2139 16.5688C22.2139 14.5251 20.5835 12.8683 18.5723 12.8683C16.5611 12.8683 14.9307 14.5251 14.9307 16.5688C14.9307 18.6126 16.5611 20.2694 18.5723 20.2694Z" fill="white" stroke="#505050" stroke-width="1.5" stroke-miterlimit="10" stroke-linecap="round" stroke-linejoin="round"/>
<path d="M28.8902 32.1112H28.6475C27.9191 32.1112 27.4336 31.6178 27.4336 30.8777V27.6705C27.4336 26.9304 27.9191 26.437 28.6475 26.437H28.8902C29.6186 26.437 30.1041 26.9304 30.1041 27.6705V30.8777C30.1041 31.4944 29.4972 32.1112 28.8902 32.1112Z" fill="white" stroke="#505050" stroke-width="1.5" stroke-miterlimit="10" stroke-linecap="round" stroke-linejoin="round"/>
<path d="M8.13292 31.9878H7.89014C7.16182 31.9878 6.67627 31.4944 6.67627 30.7543V27.5471C6.67627 26.807 7.16182 26.3136 7.89014 26.3136H8.13292C8.86124 26.3136 9.34679 26.807 9.34679 27.5471V30.7543C9.34679 31.4944 8.73985 31.9878 8.13292 31.9878Z" fill="white" stroke="#505050" stroke-width="1.5" stroke-miterlimit="10" stroke-linecap="round" stroke-linejoin="round"/>
<path d="M9.34692 30.7543L18.0868 26.437L27.4336 31.1244" stroke="#505050" stroke-width="1.5" stroke-miterlimit="10" stroke-linecap="round" stroke-linejoin="round"/>
<path d="M30.5896 26.5604H6.31212C5.21963 26.5604 4.24854 25.6969 4.24854 24.4634V24.34C4.24854 23.2299 5.09825 22.243 6.31212 22.243H30.5896C31.6821 22.243 32.6532 23.1065 32.6532 24.34V24.4634C32.5318 25.6969 31.6821 26.5604 30.5896 26.5604Z" fill="white" stroke="#505050" stroke-width="1.5" stroke-miterlimit="10" stroke-linecap="round" stroke-linejoin="round"/>
</svg>
